HIERARCHY
ROOT hip
{
  OFFSET 0 0 0
  CHANNELS 6 Xposition Yposition Zposition Zrotation Yrotation Xrotation
  JOINT abdomen
  {
    OFFSET 0 20.6881 -0.73152
    CHANNELS 3 Zrotation Xrotation Yrotation
    JOINT chest
    {
      OFFSET 0 11.7043 -0.48768
      CHANNELS 3 Zrotation Xrotation Yrotation
      JOINT neck
      {
        OFFSET 0 22.1894 -2.19456
        CHANNELS 3 Zrotation Xrotation Yrotation
        JOINT head
        {
          OFFSET -0.24384 7.07133 1.2192
          CHANNELS 3 Zrotation Xrotation Yrotation
          JOINT leftEye
          {
            OFFSET 4.14528 8.04674 8.04672
            CHANNELS 3 Zrotation Xrotation Yrotation
            End Site
            {
              OFFSET 1 0 0
            }
          }
          JOINT rightEye
          {
            OFFSET -3.6576 8.04674 8.04672
            CHANNELS 3 Zrotation Xrotation Yrotation
            End Site
            {
              OFFSET 1 0 0
            }
          }
        }
      }
      JOINT rCollar
      {
        OFFSET -2.68224 19.2634 -4.8768
        CHANNELS 3 Zrotation Xrotation Yrotation
        JOINT rShldr
        {
          OFFSET -8.77824 -1.95073 1.46304
          CHANNELS 3 Zrotation Xrotation Yrotation
          JOINT rForeArm
          {
            OFFSET -28.1742 -1.7115 0.48768
            CHANNELS 3 Zrotation Xrotation Yrotation
            JOINT rHand
            {
              OFFSET -22.5879 0.773209 7.07136
              CHANNELS 3 Zrotation Xrotation Yrotation
              JOINT rThumb1
              {
                OFFSET -1.2192 -0.487915 3.41376
                CHANNELS 3 Zrotation Xrotation Yrotation
                JOINT rThumb2
                {
                  OFFSET -3.37035 -0.52449 3.41376
                  CHANNELS 3 Zrotation Xrotation Yrotation
                  End Site
                  {
                    OFFSET -1.78271 -1.18214 1.43049
                  }
                }
              }
              JOINT rIndex1
              {
                OFFSET -7.75947 0.938293 5.60832
                CHANNELS 3 Zrotation Xrotation Yrotation
                JOINT rIndex2
                {
                  OFFSET -2.54057 -0.884171 1.56538
                  CHANNELS 3 Zrotation Xrotation Yrotation
                  End Site
                  {
                    OFFSET -1.62519 -0.234802 1.16502
                  }
                }
              }
              JOINT rMid1
              {
                OFFSET -8.24714 1.18213 3.41376
                CHANNELS 3 Zrotation Xrotation Yrotation
                JOINT rMid2
                {
                  OFFSET -3.10165 -0.590103 1.0647
                  CHANNELS 3 Zrotation Xrotation Yrotation
                  End Site
                  {
                    OFFSET -2.48547 -0.328903 0.83742
                  }
                }
              }
              JOINT rRing1
              {
                OFFSET -8.82822 0.546677 1.51678
                CHANNELS 3 Zrotation Xrotation Yrotation
                JOINT rRing2
                {
                  OFFSET -2.60934 -0.819778 -0.0198488
                  CHANNELS 3 Zrotation Xrotation Yrotation
                  End Site
                  {
                    OFFSET -2.33842 -0.294052 0.168128
                  }
                }
              }
              JOINT rPinky1
              {
                OFFSET -8.27202 -0.0477905 -0.4584
                CHANNELS 3 Zrotation Xrotation Yrotation
                JOINT rPinky2
                {
                  OFFSET -1.82734 -0.647385 -0.700984
                  CHANNELS 3 Zrotation Xrotation Yrotation
                  End Site
                  {
                    OFFSET -1.69225 -0.51767 -0.607171
                  }
                }
              }
            }
          }
        }
      }
      JOINT lCollar
      {
        OFFSET 2.68224 19.2634 -4.8768
        CHANNELS 3 Zrotation Xrotation Yrotation
        JOINT lShldr
        {
          OFFSET 8.77824 -1.95073 1.46304
          CHANNELS 3 Zrotation Xrotation Yrotation
          JOINT lForeArm
          {
            OFFSET 28.1742 -1.7115 0.48768
            CHANNELS 3 Zrotation Xrotation Yrotation
            JOINT lHand
            {
              OFFSET 22.5879 0.773209 7.07136
              CHANNELS 3 Zrotation Xrotation Yrotation
              JOINT lThumb1
              {
                OFFSET 1.2192 -0.487915 3.41376
                CHANNELS 3 Zrotation Xrotation Yrotation
                JOINT lThumb2
                {
                  OFFSET 3.37035 -0.52449 3.41376
                  CHANNELS 3 Zrotation Xrotation Yrotation
                  End Site
                  {
                    OFFSET 1.78271 -1.18214 1.43049
                  }
                }
              }
              JOINT lIndex1
              {
                OFFSET 7.75947 0.938293 5.60832
                CHANNELS 3 Zrotation Xrotation Yrotation
                JOINT lIndex2
                {
                  OFFSET 2.54057 -0.884171 1.56538
                  CHANNELS 3 Zrotation Xrotation Yrotation
                  End Site
                  {
                    OFFSET 1.62519 -0.234802 1.16502
                  }
                }
              }
              JOINT lMid1
              {
                OFFSET 8.24714 1.18213 3.41376
                CHANNELS 3 Zrotation Xrotation Yrotation
                JOINT lMid2
                {
                  OFFSET 3.10165 -0.590103 1.0647
                  CHANNELS 3 Zrotation Xrotation Yrotation
                  End Site
                  {
                    OFFSET 2.48547 -0.328903 0.83742
                  }
                }
              }
              JOINT lRing1
              {
                OFFSET 8.82822 0.546677 1.51678
                CHANNELS 3 Zrotation Xrotation Yrotation
                JOINT lRing2
                {
                  OFFSET 2.60934 -0.819778 -0.0198488
                  CHANNELS 3 Zrotation Xrotation Yrotation
                  End Site
                  {
                    OFFSET 2.33842 -0.294052 0.168128
                  }
                }
              }
              JOINT lPinky1
              {
                OFFSET 8.27202 -0.0477905 -0.4584
                CHANNELS 3 Zrotation Xrotation Yrotation
                JOINT lPinky2
                {
                  OFFSET 1.82734 -0.647385 -0.700984
                  CHANNELS 3 Zrotation Xrotation Yrotation
                  End Site
                  {
                    OFFSET 1.69225 -0.51767 -0.607171
                  }
                }
              }
            }
          }
        }
      }
    }
  }
  JOINT rButtock
  {
    OFFSET -8.77824 4.35084 1.2192
    CHANNELS 3 Zrotation Xrotation Yrotation
    JOINT rThigh
    {
      OFFSET 0 -1.70687 -2.19456
      CHANNELS 3 Zrotation Xrotation Yrotation
      JOINT rShin
      {
        OFFSET 0 -36.8199 0.73152
        CHANNELS 3 Zrotation Xrotation Yrotation
        JOINT rFoot
        {
          OFFSET 0.73152 -45.1104 -5.12064
          CHANNELS 3 Zrotation Xrotation Yrotation
          End Site
          {
            OFFSET -1.1221 -3.69964 12.103
          }
        }
      }
    }
  }
  JOINT lButtock
  {
    OFFSET 8.77824 4.35084 1.2192
    CHANNELS 3 Zrotation Xrotation Yrotation
    JOINT lThigh
    {
      OFFSET 0 -1.70687 -2.19456
      CHANNELS 3 Zrotation Xrotation Yrotation
      JOINT lShin
      {
        OFFSET 0 -36.8199 0.73152
        CHANNELS 3 Zrotation Xrotation Yrotation
        JOINT lFoot
        {
          OFFSET -0.73152 -45.1104 -5.12064
          CHANNELS 3 Zrotation Xrotation Yrotation
          End Site
          {
            OFFSET 1.1221 -3.69964 12.103
          }
        }
      }
    }
  }
}
MOTION
Frames:	7
Frame Time:	0.00833333
-10.4557 80.9224 19.2079 -173.375 133.263 -176.855 -2.86691 16.5613 -7.82753 6.24809 -1.72869 -2.11344 -7.24467 20.47 -5.83138 18.9204 -19.5088 -8.30814 -0.0 0.0 0.0 -0.0 0.0 0.0 1.60676e-13 -2.59206e-13 4.13621e-13 58.0688 4.50737 13.4837 16.6504 -55.5449 -121.836 -0.0111635 3.01524 0.42416 1.79003e-09 1.86107e-09 -1.40208e-09 3.09967e-09 3.2315e-09 -2.43691e-09 1.79004e-09 1.86107e-09 -1.40209e-09 7.73091 5.47488 0.417314 1.79002e-09 1.86107e-09 -1.40209e-09 2.90554 0.965183 0.102902 1.79002e-09 1.86106e-09 -1.40209e-09 10.2786 0.731801 0.0259123 1.79002e-09 1.86108e-09 -1.40209e-09 2.22167 -0.733487 -0.20892 1.6062e-13 -2.59224e-13 4.13273e-13 -34.398 49.5409 -52.7487 -19.5667 -53.6752 115.256 3.82241 -47.2114 8.73306 1.97339e-09 -4.72529e-09 -8.91758e-10 3.43457e-09 -8.23751e-09 -1.45478e-09 1.97339e-09 -4.72529e-09 -8.91735e-10 -7.73091 5.47488 -0.417314 1.97339e-09 -4.72529e-09 -8.91748e-10 -2.90554 0.965183 -0.102902 1.97338e-09 -4.72529e-09 -8.91758e-10 -10.2786 0.731801 -0.0259123 1.9734e-09 -4.72529e-09 -8.91767e-10 -2.22167 -0.733487 0.20892 -2.03217e-16 0.0 -3.88251e-19 -16.3262 -33.873 25.0172 -0.561964 47.9485 0.748089 -0.2697 6.3125 0.952352 2.03217e-16 0.0 3.88251e-19 12.8236 -10.7884 8.46245 0.553084 48.6119 -0.96511 0.0462892 -4.53999 -2.7389
-10.4135 81.1031 19.2301 -173.193 133.953 -176.904 -2.99573 16.7703 -7.53141 5.98312 -1.83676 -2.03045 -7.32247 20.1675 -5.8236 18.7511 -19.1647 -8.35465 -0.0 0.0 0.0 -0.0 0.0 0.0 1.38103e-13 -1.94056e-13 3.31095e-13 57.4798 5.305 14.1832 17.0443 -55.3242 -120.984 -0.0138969 3.37001 0.474171 1.62577e-09 1.51321e-09 -1.03325e-09 2.81599e-09 2.62836e-09 -1.7969e-09 1.62578e-09 1.51321e-09 -1.03326e-09 7.73091 5.47488 0.417314 1.62577e-09 1.51321e-09 -1.03326e-09 2.90554 0.965183 0.102902 1.62577e-09 1.5132e-09 -1.03326e-09 10.2786 0.731801 0.0259123 1.62577e-09 1.51322e-09 -1.03326e-09 2.22167 -0.733487 -0.20892 1.38063e-13 -1.94071e-13 3.30783e-13 -34.8395 49.6226 -52.2353 -19.6227 -53.6339 115.123 3.73685 -46.8312 8.61639 1.53896e-09 -3.66885e-09 -6.97369e-10 2.67784e-09 -6.39241e-09 -1.13688e-09 1.53895e-09 -3.66884e-09 -6.97348e-10 -7.73091 5.47488 -0.417314 1.53896e-09 -3.66885e-09 -6.97362e-10 -2.90554 0.965183 -0.102902 1.53895e-09 -3.66885e-09 -6.9737e-10 -10.2786 0.731801 -0.0259123 1.53896e-09 -3.66884e-09 -6.97378e-10 -2.22167 -0.733487 0.20892 -2.03217e-16 0.0 -3.88251e-19 -16.1355 -34.2918 24.5605 -0.561081 47.9086 0.743417 -0.242434 5.40143 1.29065 2.03217e-16 0.0 3.88251e-19 12.7609 -10.6172 7.7813 0.557089 48.6683 -0.957713 0.0361052 -3.25689 -3.22616
-10.4827 81.1876 19.2571 -173.714 134.551 -177.371 -2.92423 17.0025 -7.31571 5.68483 -1.99194 -1.96034 -7.42738 19.8883 -5.78338 18.5458 -18.9316 -8.33348 -0.0 0.0 0.0 -0.0 0.0 0.0 1.08365e-13 -9.52134e-14 9.29567e-14 56.9083 6.28448 14.761 17.4707 -55.0738 -120.05 -0.0169775 3.73064 0.525046 1.00826e-09 6.08199e-10 5.36776e-12 1.74668e-09 1.0566e-09 5.41955e-12 1.00827e-09 6.082e-10 5.35949e-12 7.73091 5.47488 0.417314 1.00826e-09 6.08201e-10 5.36504e-12 2.90554 0.965183 0.102902 1.00825e-09 6.08192e-10 5.35882e-12 10.2786 0.731801 0.0259123 1.00826e-09 6.08204e-10 5.36721e-12 2.22167 -0.733487 -0.20892 1.08345e-13 -9.52222e-14 9.27082e-14 -35.3545 49.7385 -51.638 -19.6805 -53.591 114.985 3.63837 -46.3817 8.48095 3.91913e-10 -9.87034e-10 -3.54915e-10 6.87791e-10 -1.72757e-09 -5.94171e-10 3.91908e-10 -9.87026e-10 -3.54896e-10 -7.73091 5.47488 -0.417314 3.91914e-10 -9.87034e-10 -3.54911e-10 -2.90554 0.965183 -0.102902 3.91908e-10 -9.87033e-10 -3.54917e-10 -10.2786 0.731801 -0.0259123 3.91917e-10 -9.87032e-10 -3.54921e-10 -2.22167 -0.733487 0.20892 -2.03217e-16 0.0 -3.88251e-19 -15.8106 -34.6231 24.036 -0.561595 47.8986 0.737181 -0.206551 4.1246 1.04931 2.03217e-16 0.0 3.88251e-19 12.7698 -10.4715 6.90184 0.562965 48.7836 -0.952374 0.0616222 -2.11484 -3.54609
-10.3934 81.2355 19.2654 -173.622 135.097 -177.563 -2.83939 17.21 -7.15472 5.42553 -2.13833 -1.90532 -7.56216 19.5889 -5.71671 18.3084 -18.7665 -8.25588 -0.0 0.0 0.0 -0.0 0.0 0.0 7.05806e-14 8.69804e-15 -1.44685e-13 56.3671 7.34686 15.2428 17.8917 -54.8141 -119.116 -0.0203097 4.07643 0.573875 2.89395e-10 -3.28443e-10 1.00558e-09 5.01444e-10 -5.70548e-10 1.74154e-09 2.89399e-10 -3.2844e-10 1.00557e-09 7.73091 5.47488 0.417314 2.89388e-10 -3.28439e-10 1.00558e-09 2.90554 0.965183 0.102902 2.89386e-10 -3.28447e-10 1.00557e-09 10.2786 0.731801 0.0259123 2.8939e-10 -3.28436e-10 1.00558e-09 2.22167 -0.733487 -0.20892 7.05701e-14 8.69549e-15 -1.4487e-13 -35.9518 49.8749 -50.9979 -19.7344 -53.5506 114.855 3.53892 -45.9147 8.34289 -7.6801e-10 1.73627e-09 4.19925e-11 -1.32638e-09 3.01254e-09 4.17373e-11 -7.68018e-10 1.73628e-09 4.2009e-11 -7.73091 5.47488 -0.417314 -7.68009e-10 1.73627e-09 4.1992e-11 -2.90554 0.965183 -0.102902 -7.68014e-10 1.73627e-09 4.19886e-11 -10.2786 0.731801 -0.0259123 -7.68007e-10 1.73627e-09 4.19886e-11 -2.22167 -0.733487 0.20892 -2.03217e-16 0.0 -3.88251e-19 -15.4705 -34.8957 23.5683 -0.562946 47.9096 0.7309 -0.193018 2.82899 0.570685 2.03217e-16 0.0 3.88251e-19 12.7318 -10.3215 5.93277 0.568708 48.9046 -0.948475 0.116295 -1.201 -3.61039
-10.2745 81.2639 19.3075 -173.484 135.6 -177.651 -2.92807 17.3448 -7.02267 5.2773 -2.22001 -1.86757 -7.72946 19.2257 -5.62971 18.0431 -18.6264 -8.13313 -0.0 0.0 0.0 -0.0 0.0 0.0 2.38674e-14 8.90555e-14 -2.2572e-13 55.8724 8.39391 15.652 18.2734 -54.5686 -118.258 -0.0236591 4.3867 0.61773 -1.78936e-10 -7.71189e-10 1.25918e-09 -3.10057e-10 -1.33988e-09 2.18295e-09 -1.78934e-10 -7.71186e-10 1.25917e-09 7.73091 5.47488 0.417314 -1.78943e-10 -7.71184e-10 1.25918e-09 2.90554 0.965183 0.102902 -1.78946e-10 -7.71192e-10 1.25918e-09 10.2786 0.731801 0.0259123 -1.78942e-10 -7.71182e-10 1.25919e-09 2.22167 -0.733487 -0.20892 2.38425e-14 8.90551e-14 -2.25869e-13 -36.6394 50.0192 -50.3573 -19.7789 -53.5171 114.748 3.44906 -45.4818 8.21712 -1.24108e-09 2.91719e-09 3.99738e-10 -2.15548e-09 5.08348e-09 6.39248e-10 -1.24109e-09 2.91721e-09 3.99754e-10 -7.73091 5.47488 -0.417314 -1.24108e-09 2.91719e-09 3.99735e-10 -2.90554 0.965183 -0.102902 -1.24108e-09 2.91719e-09 3.99734e-10 -10.2786 0.731801 -0.0259123 -1.24108e-09 2.91719e-09 3.99735e-10 -2.22167 -0.733487 0.20892 -2.03217e-16 0.0 -3.88251e-19 -15.2331 -35.1403 23.2834 -0.564578 47.9329 0.726097 -0.197978 1.86253 0.193623 2.03217e-16 0.0 3.88251e-19 12.5291 -10.1382 4.98297 0.572338 48.9783 -0.94541 0.192433 -0.602218 -3.33
-10.1953 81.2252 19.3438 -173.29 136.103 -177.526 -3.29016 17.3783 -6.92717 5.30221 -2.19874 -1.85422 -7.97337 18.7557 -5.521 17.7494 -18.502 -7.95946 -0.0 0.0 0.0 -0.0 0.0 0.0 -4.71352e-14 1.45041e-13 -5.10686e-14 55.3652 9.41856 16.0518 18.6448 -54.3245 -117.411 -0.0274074 4.71291 0.663873 -2.97172e-10 -4.64798e-10 2.9634e-10 -5.15615e-10 -8.0819e-10 5.15188e-10 -2.9717e-10 -4.64795e-10 2.96328e-10 7.73091 5.47488 0.417314 -2.97178e-10 -4.64794e-10 2.9634e-10 2.90554 0.965183 0.102902 -2.9718e-10 -4.648e-10 2.96335e-10 10.2786 0.731801 0.0259123 -2.97178e-10 -4.64792e-10 2.96348e-10 2.22167 -0.733487 -0.20892 -4.72207e-14 1.45035e-13 -5.12239e-14 -37.4431 50.135 -49.7667 -19.8161 -53.4889 114.659 3.37159 -45.1011 8.108 -6.40199e-10 1.71685e-09 7.65467e-10 -1.13438e-09 3.03947e-09 1.29648e-09 -6.40208e-10 1.71686e-09 7.65486e-10 -7.73091 5.47488 -0.417314 -6.40198e-10 1.71685e-09 7.65463e-10 -2.90554 0.965183 -0.102902 -6.40203e-10 1.71684e-09 7.65462e-10 -10.2786 0.731801 -0.0259123 -6.40195e-10 1.71685e-09 7.65463e-10 -2.22167 -0.733487 0.20892 -2.03217e-16 0.0 -3.88251e-19 -15.1814 -35.3819 23.2032 -0.566546 47.9694 0.722717 -0.214744 1.35764 -0.153107 2.03217e-16 0.0 3.88251e-19 12.0733 -9.94331 4.08583 0.57407 49.0129 -0.943575 0.317582 -0.390467 -2.37978
-10.0582 81.1088 19.351 -172.529 136.667 -177.031 -3.80819 17.3415 -6.87742 5.44737 -2.11211 -1.86192 -8.2764 18.2124 -5.38909 17.4252 -18.4155 -7.73178 -0.0 0.0 0.0 -0.0 0.0 0.0 -1.36915e-13 1.89648e-13 2.7686e-13 54.8621 10.4681 16.4113 19.0118 -54.0758 -116.562 -0.0315203 5.04708 0.711191 -2.54897e-10 2.72085e-10 -1.41158e-09 -4.43599e-10 4.70918e-10 -2.44425e-09 -2.54894e-10 2.72086e-10 -1.41159e-09 7.73091 5.47488 0.417314 -2.54901e-10 2.72087e-10 -1.41158e-09 2.90554 0.965183 0.102902 -2.54901e-10 2.72082e-10 -1.41158e-09 10.2786 0.731801 0.0259123 -2.54901e-10 2.72088e-10 -1.41157e-09 2.22167 -0.733487 -0.20892 -1.37094e-13 1.89632e-13 2.76674e-13 -38.3507 50.2404 -49.1907 -19.8479 -53.4648 114.582 3.30014 -44.7435 8.00679 5.94609e-10 -8.81196e-10 1.16507e-09 9.77788e-10 -1.41779e-09 2.03921e-09 5.94603e-10 -8.81187e-10 1.16509e-09 -7.73091 5.47488 -0.417314 5.94611e-10 -8.81197e-10 1.16507e-09 -2.90554 0.965183 -0.102902 5.94606e-10 -8.81198e-10 1.16507e-09 -10.2786 0.731801 -0.0259123 5.94617e-10 -8.81195e-10 1.16506e-09 -2.22167 -0.733487 0.20892 -2.03217e-16 0.0 -3.88251e-19 -15.2312 -35.5988 23.2669 -0.569073 48.0225 0.720097 -0.244614 1.11556 -0.596864 2.03217e-16 0.0 3.88251e-19 11.4472 -9.74237 3.18195 0.574731 49.0293 -0.943118 0.48719 -0.50293 -0.907067
